<svg width="21" height="14" viewBox="0 0 21 14" fill="none" xmlns="http://www.w3.org/2000/svg">
    <path fill-rule="evenodd" clip-rule="evenodd"
          d="M7.01631 0.000742915C7.46059 -0.0163195 7.86277 0.261991 8.00337 0.683779L10.8617 9.25873L12.0785 3.78308C12.1703 3.36986 12.5124 3.05922 12.9325 3.0075C13.3526 2.95578 13.7598 3.17418 13.9491 3.55279L15.1727 6.00001H19.0547C19.607 6.00001 20.0547 6.44772 20.0547 7.00001C20.0547 7.55229 19.607 8.00001 19.0547 8.00001H14.5547C14.1759 8.00001 13.8297 7.786 13.6603 7.44722L13.4199 6.96644L12.0309 13.2169C11.9334 13.6557 11.5551 13.9755 11.1062 13.9987C10.6573 14.0218 10.2481 13.7427 10.106 13.3162L7.19195 4.57407L6.52483 7.24254C6.41354 7.68771 6.01356 8.00001 5.55469 8.00001H1.05469C0.502403 8.00001 0.0546875 7.55229 0.0546875 7.00001C0.0546875 6.44772 0.502403 6.00001 1.05469 6.00001H4.77391L6.08455 0.757471C6.19238 0.326142 6.57203 0.0178052 7.01631 0.000742915Z"
          fill="#4F4F4F"/>
</svg>
