<svg width="257" height="35" viewBox="0 0 257 35" fill="none" xmlns="http://www.w3.org/2000/svg">
    <path d="M29.8051 29.2013C28.7148 28.1143 27.32 27.3847 25.8057 27.1093C24.2914 26.8339 22.7292 27.0255 21.3263 27.659C19.4558 28.4881 17.3869 28.763 15.365 28.451V11.5703C14.0416 11.5703 12.7725 12.0963 11.8368 13.0325C10.901 13.9688 10.3753 15.2386 10.3753 16.5627V26.2394C8.66159 24.8674 7.41596 22.9968 6.81051 20.886C6.20506 18.7751 6.26966 16.5283 6.99538 14.4558C7.7211 12.3833 9.07213 10.5874 10.8618 9.31625C12.6516 8.04507 14.7916 7.36132 16.9864 7.35945C18.4733 7.35611 19.9438 7.66942 21.3002 8.27855C22.7034 8.9105 24.2652 9.10141 25.7792 8.82602C27.2931 8.55063 28.6879 7.82192 29.779 6.73627L29.0031 5.9599C26.0523 2.99852 22.1126 1.23169 17.9397 0.998456C13.7669 0.76522 9.65498 2.08201 6.39297 4.69613C4.40261 6.28228 2.79451 8.29625 1.68787 10.5888C0.58123 12.8813 0.00441568 15.3937 0.000178127 17.9396C-0.0100978 20.1781 0.424327 22.3964 1.27821 24.4655C2.1321 26.5346 3.38842 28.4133 4.97419 29.9924C5.42145 30.4378 5.89153 30.8596 6.38253 31.2562C9.64773 33.8621 13.7575 35.174 17.9277 34.9417C22.0979 34.7094 26.0367 32.9492 28.9926 29.9968L29.8051 29.2013Z"
          fill="#652F8F"/>
    <path d="M16.8708 20.6705H19.1629C20.4843 20.6702 21.7517 20.1456 22.6869 19.2116C23.6222 18.2776 24.149 17.0106 24.1517 15.6885H21.8605C21.2059 15.6878 20.5576 15.8161 19.9526 16.0661C19.3476 16.3161 18.7977 16.6829 18.3344 17.1455C17.871 17.6081 17.5033 18.1575 17.2522 18.7623C17.0011 19.3672 16.8715 20.0155 16.8708 20.6705Z"
          fill="#652F8F"/>
    <path d="M41.2789 0.968018H40.2516V17.9662V34.9645H41.2789V0.968018Z" fill="#652F8F"/>
    <path d="M52.0041 17.768C51.8841 10.208 58.4041 3.92802 66.0841 4.08802C71.0841 4.08802 75.3641 6.52802 77.7241 10.648L73.6441 13.528C71.7641 10.568 69.2441 9.08802 66.0841 9.08802C61.1641 9.08802 57.5641 12.768 57.5641 17.808C57.5641 22.848 61.1641 26.448 66.0841 26.448C69.2441 26.448 71.7641 24.968 73.6441 22.008L77.7241 24.888C75.4441 29.008 71.1241 31.448 66.0441 31.448C58.3241 31.608 51.8441 25.328 52.0041 17.768ZM81.1131 30.968V4.56802H98.4731V9.44802H86.5131V16.048H96.3131V20.928H86.5131V30.968H81.1131ZM114.087 30.968V9.44802H105.647V4.56802H127.967V9.44802H119.487V30.968H114.087ZM140.368 11.168V15.928H138.928C135.688 15.928 133.608 17.688 133.608 21.088V30.968H128.208V11.168H133.168V13.528C134.488 11.888 136.408 10.928 138.608 10.928C139.288 10.928 139.848 11.008 140.368 11.168ZM158.725 19.208V30.968H153.765V29.048C152.325 30.528 150.245 31.448 147.725 31.448C143.525 31.448 140.885 29.008 140.885 25.528C140.885 21.968 143.765 19.768 148.365 19.768H153.325V18.888C153.325 16.688 152.045 15.408 149.645 15.408C147.605 15.408 146.165 16.248 144.405 18.128L141.605 14.808C143.885 12.088 146.765 10.728 150.245 10.728C155.405 10.728 158.725 13.728 158.725 19.208ZM153.325 23.568V23.328H149.085C147.325 23.328 146.325 24.008 146.325 25.328C146.325 26.648 147.445 27.488 149.165 27.488C151.525 27.488 153.325 25.848 153.325 23.568ZM180.922 18.688V30.968H175.562V19.408C175.562 17.128 174.082 15.568 171.882 15.568C169.682 15.568 168.122 17.128 168.122 19.408V30.968H162.722V11.168H167.682V12.968C169.082 11.568 171.122 10.728 173.482 10.728C178.082 10.728 180.922 13.888 180.922 18.688ZM183.12 27.608L185.84 24.328C187.56 26.128 189.44 27.008 191.4 27.008C192.84 27.008 193.92 26.448 193.92 25.368C193.92 24.528 193.36 24.208 191.88 23.568L189.76 22.688C186.12 21.208 184.36 19.568 184.36 16.648C184.36 12.928 187.32 10.728 191.64 10.728C194.6 10.728 196.96 11.728 198.76 13.688L196.04 17.008C194.72 15.768 193.24 15.128 191.6 15.128C190.28 15.128 189.48 15.608 189.48 16.528C189.48 17.288 190 17.648 191.56 18.288L193.48 19.088C197.32 20.648 199.04 22.208 199.04 25.128C199.04 27.088 198.32 28.648 196.84 29.768C195.4 30.888 193.56 31.448 191.32 31.448C187.84 31.448 184.92 30.008 183.12 27.608ZM218.523 19.208V30.968H213.563V29.048C212.123 30.528 210.043 31.448 207.523 31.448C203.323 31.448 200.683 29.008 200.683 25.528C200.683 21.968 203.563 19.768 208.163 19.768H213.123V18.888C213.123 16.688 211.843 15.408 209.443 15.408C207.403 15.408 205.963 16.248 204.203 18.128L201.403 14.808C203.683 12.088 206.563 10.728 210.043 10.728C215.203 10.728 218.523 13.728 218.523 19.208ZM213.123 23.568V23.328H208.883C207.123 23.328 206.123 24.008 206.123 25.328C206.123 26.648 207.243 27.488 208.963 27.488C211.323 27.488 213.123 25.848 213.123 23.568ZM221.4 21.048C221.4 15.248 226.12 10.728 232 10.728C235.88 10.728 238.88 12.568 240.6 15.608L236.84 18.528C235.6 16.728 234.16 15.648 232.08 15.648C229.04 15.648 226.88 17.968 226.88 21.048C226.88 24.208 229.04 26.488 232.08 26.488C234.12 26.488 235.56 25.448 236.84 23.648L240.6 26.528C238.88 29.568 235.84 31.448 232 31.448C226.2 31.568 221.32 26.768 221.4 21.048ZM256.111 26.448V30.968C254.831 31.288 253.591 31.448 252.391 31.448C247.391 31.448 244.471 28.968 244.471 24.008V15.728H241.351V11.168H244.471V6.16802H249.871V11.168H255.471V15.728H249.871V23.528C249.871 25.768 250.991 26.608 253.551 26.608C253.871 26.608 254.711 26.568 256.111 26.448Z"
          fill="#652F8F"/>
</svg>
