<svg xmlns="http://www.w3.org/2000/svg" width="200" height="34" viewBox="0 0 257 34" fill="none">
    <path d="M29.8051 28.2332C28.7148 27.1463 27.32 26.4167 25.8057 26.1413C24.2914 25.8658 22.7292 26.0575 21.3263 26.6909C19.4558 27.5201 17.3869 27.795 15.365 27.483V10.6023C14.0416 10.6023 12.7725 11.1282 11.8368 12.0645C10.901 13.0008 10.3753 14.2706 10.3753 15.5947V25.2714C8.66159 23.8994 7.41596 22.0288 6.81051 19.9179C6.20506 17.8071 6.26966 15.5603 6.99538 13.4878C7.7211 11.4153 9.07213 9.61941 10.8618 8.34823C12.6516 7.07705 14.7916 6.3933 16.9864 6.39143C18.4733 6.3881 19.9438 6.70141 21.3002 7.31054C22.7034 7.94248 24.2652 8.13339 25.7792 7.858C27.2931 7.58261 28.6879 6.8539 29.779 5.76825L29.0031 4.99189C26.0523 2.0305 22.1126 0.263675 17.9397 0.0304389C13.7669 -0.202797 9.65498 1.11399 6.39297 3.72812C4.40261 5.31426 2.79451 7.32823 1.68787 9.62078C0.58123 11.9133 0.00441568 14.4257 0.000178127 16.9716C-0.0100978 19.2101 0.424327 21.4284 1.27821 23.4975C2.1321 25.5666 3.38842 27.4453 4.97419 29.0244C5.42145 29.4698 5.89153 29.8916 6.38253 30.2882C9.64773 32.894 13.7575 34.206 17.9277 33.9737C22.0979 33.7414 26.0367 31.9811 28.9926 29.0287L29.8051 28.2332Z"
          fill="#652F8F"/>
    <path d="M16.8708 19.7024H19.1629C20.4843 19.7022 21.7517 19.1776 22.6869 18.2436C23.6222 17.3096 24.149 16.0426 24.1517 14.7205H21.8605C21.2059 14.7198 20.5576 14.8481 19.9526 15.0981C19.3476 15.3481 18.7977 15.7149 18.3344 16.1775C17.871 16.6401 17.5033 17.1895 17.2522 17.7943C17.0011 18.3991 16.8715 19.0475 16.8708 19.7024Z"
          fill="#652F8F"/>
    <path d="M41.2789 0H40.2516V16.9982V33.9964H41.2789V0Z" fill="#652F8F"/>
    <path d="M52.0041 16.8C51.8841 9.24 58.4041 2.96 66.0841 3.12C71.0841 3.12 75.3641 5.56 77.7241 9.68L73.6441 12.56C71.7641 9.6 69.2441 8.12 66.0841 8.12C61.1641 8.12 57.5641 11.8 57.5641 16.84C57.5641 21.88 61.1641 25.48 66.0841 25.48C69.2441 25.48 71.7641 24 73.6441 21.04L77.7241 23.92C75.4441 28.04 71.1241 30.48 66.0441 30.48C58.3241 30.64 51.8441 24.36 52.0041 16.8ZM81.1131 30V3.6H98.4731V8.48H86.5131V15.08H96.3131V19.96H86.5131V30H81.1131ZM114.087 30V8.48H105.647V3.6H127.967V8.48H119.487V30H114.087ZM140.368 10.2V14.96H138.928C135.688 14.96 133.608 16.72 133.608 20.12V30H128.208V10.2H133.168V12.56C134.488 10.92 136.408 9.96 138.608 9.96C139.288 9.96 139.848 10.04 140.368 10.2ZM158.725 18.24V30H153.765V28.08C152.325 29.56 150.245 30.48 147.725 30.48C143.525 30.48 140.885 28.04 140.885 24.56C140.885 21 143.765 18.8 148.365 18.8H153.325V17.92C153.325 15.72 152.045 14.44 149.645 14.44C147.605 14.44 146.165 15.28 144.405 17.16L141.605 13.84C143.885 11.12 146.765 9.76 150.245 9.76C155.405 9.76 158.725 12.76 158.725 18.24ZM153.325 22.6V22.36H149.085C147.325 22.36 146.325 23.04 146.325 24.36C146.325 25.68 147.445 26.52 149.165 26.52C151.525 26.52 153.325 24.88 153.325 22.6ZM180.922 17.72V30H175.562V18.44C175.562 16.16 174.082 14.6 171.882 14.6C169.682 14.6 168.122 16.16 168.122 18.44V30H162.722V10.2H167.682V12C169.082 10.6 171.122 9.76 173.482 9.76C178.082 9.76 180.922 12.92 180.922 17.72ZM183.12 26.64L185.84 23.36C187.56 25.16 189.44 26.04 191.4 26.04C192.84 26.04 193.92 25.48 193.92 24.4C193.92 23.56 193.36 23.24 191.88 22.6L189.76 21.72C186.12 20.24 184.36 18.6 184.36 15.68C184.36 11.96 187.32 9.76 191.64 9.76C194.6 9.76 196.96 10.76 198.76 12.72L196.04 16.04C194.72 14.8 193.24 14.16 191.6 14.16C190.28 14.16 189.48 14.64 189.48 15.56C189.48 16.32 190 16.68 191.56 17.32L193.48 18.12C197.32 19.68 199.04 21.24 199.04 24.16C199.04 26.12 198.32 27.68 196.84 28.8C195.4 29.92 193.56 30.48 191.32 30.48C187.84 30.48 184.92 29.04 183.12 26.64ZM218.523 18.24V30H213.563V28.08C212.123 29.56 210.043 30.48 207.523 30.48C203.323 30.48 200.683 28.04 200.683 24.56C200.683 21 203.563 18.8 208.163 18.8H213.123V17.92C213.123 15.72 211.843 14.44 209.443 14.44C207.403 14.44 205.963 15.28 204.203 17.16L201.403 13.84C203.683 11.12 206.563 9.76 210.043 9.76C215.203 9.76 218.523 12.76 218.523 18.24ZM213.123 22.6V22.36H208.883C207.123 22.36 206.123 23.04 206.123 24.36C206.123 25.68 207.243 26.52 208.963 26.52C211.323 26.52 213.123 24.88 213.123 22.6ZM221.4 20.08C221.4 14.28 226.12 9.76 232 9.76C235.88 9.76 238.88 11.6 240.6 14.64L236.84 17.56C235.6 15.76 234.16 14.68 232.08 14.68C229.04 14.68 226.88 17 226.88 20.08C226.88 23.24 229.04 25.52 232.08 25.52C234.12 25.52 235.56 24.48 236.84 22.68L240.6 25.56C238.88 28.6 235.84 30.48 232 30.48C226.2 30.6 221.32 25.8 221.4 20.08ZM256.111 25.48V30C254.831 30.32 253.591 30.48 252.391 30.48C247.391 30.48 244.471 28 244.471 23.04V14.76H241.351V10.2H244.471V5.2H249.871V10.2H255.471V14.76H249.871V22.56C249.871 24.8 250.991 25.64 253.551 25.64C253.871 25.64 254.711 25.6 256.111 25.48Z"
          fill="#652F8F"/>
</svg>
