<svg xmlns="http://www.w3.org/2000/svg" width="24" height="25" viewBox="0 0 24 25" fill="none">
    <path d="M21.4163 8.87562L12.4163 2.87562C12.293 2.79339 12.1482 2.74951 12 2.74951C11.8518 2.74951 11.707 2.79339 11.5837 2.87562L2.58375 8.87562C2.48101 8.94417 2.39679 9.03703 2.33857 9.14595C2.28034 9.25488 2.24992 9.37649 2.25 9.5V19.25C2.25 19.6478 2.40804 20.0294 2.68934 20.3107C2.97064 20.592 3.35218 20.75 3.75 20.75H20.25C20.6478 20.75 21.0294 20.592 21.3107 20.3107C21.592 20.0294 21.75 19.6478 21.75 19.25V9.5C21.7501 9.37649 21.7197 9.25488 21.6614 9.14595C21.6032 9.03703 21.519 8.94417 21.4163 8.87562ZM9.0675 14.75L3.75 18.5V10.9559L9.0675 14.75ZM10.6022 15.5H13.3978L18.7069 19.25H5.29312L10.6022 15.5ZM14.9325 14.75L20.25 10.9559V18.5L14.9325 14.75ZM12 4.40094L19.6791 9.52062L13.3978 14H10.6041L4.32281 9.52062L12 4.40094Z"
          fill="black"/>
</svg>