<svg xmlns="http://www.w3.org/2000/svg" width="34" height="34" viewBox="0 0 34 34" fill="none">
    <rect width="34" height="34" rx="5" fill="black"/>
    <path d="M14.7266 18.3633V16.2148C14.7266 15.668 14.7201 15.1211 14.707 14.5742C14.707 14.0273 14.694 13.5586 14.668 13.168C14.6549 12.7773 14.6289 12.5495 14.5898 12.4844L13.2031 12.1133L13.2617 11H17.7148L17.7734 12.1133L16.5039 12.4844C16.4779 12.5495 16.4518 12.7773 16.4258 13.168C16.3997 13.5456 16.3802 14.0078 16.3672 14.5547C16.3672 15.1016 16.3672 15.6549 16.3672 16.2148V19.3594C16.3672 20.0755 16.3607 20.681 16.3477 21.1758C16.3477 21.6576 16.3477 22.1263 16.3477 22.582H14.9609L6.67969 13.832H8.125V16.8789C8.125 17.5299 8.125 18.1549 8.125 18.7539C8.13802 19.3398 8.15755 19.8346 8.18359 20.2383C8.20964 20.6419 8.24219 20.8893 8.28125 20.9805L9.66797 21.3516L9.60938 22.4648H5.05859L5 21.3516L6.26953 20.9805C6.29557 20.8893 6.3151 20.6289 6.32812 20.1992C6.35417 19.7695 6.3737 19.2552 6.38672 18.6562C6.39974 18.0573 6.40625 17.4648 6.40625 16.8789V14.7695C6.40625 14.6133 6.39323 14.3789 6.36719 14.0664C6.35417 13.7409 6.33464 13.4219 6.30859 13.1094C6.29557 12.7969 6.28255 12.5885 6.26953 12.4844L5 12.1133L5.05859 11H8.41797L15.8008 18.3633H14.7266Z"
          fill="white"/>
    <path d="M20.293 20.9805C20.332 20.9154 20.3646 20.5833 20.3906 19.9844C20.4167 19.3854 20.4297 18.6888 20.4297 17.8945V15.5508C20.4297 14.7826 20.4167 14.099 20.3906 13.5C20.3646 12.901 20.332 12.569 20.293 12.5039L19.0234 12.0938L19.082 11H25.2148C26.6471 11 27.7018 11.2279 28.3789 11.6836C29.069 12.1263 29.4141 12.8164 29.4141 13.7539C29.4141 14.4701 29.082 15.069 28.418 15.5508C27.7539 16.0195 26.875 16.2865 25.7812 16.3516L26.1133 16.1758C27.3503 16.2409 28.3073 16.5273 28.9844 17.0352C29.6615 17.543 30 18.2201 30 19.0664C30 20.1602 29.5443 21 28.6328 21.5859C27.7344 22.1719 26.4453 22.4648 24.7656 22.4648H19.082L19.0234 21.3516L20.293 20.9805ZM23.6719 19.0078C23.6719 19.4896 23.6784 19.8997 23.6914 20.2383C23.7044 20.5768 23.7174 20.8307 23.7305 21C23.8477 21.0521 23.9974 21.0977 24.1797 21.1367C24.375 21.1628 24.5703 21.1758 24.7656 21.1758C25.2995 21.1758 25.7227 21.013 26.0352 20.6875C26.3477 20.362 26.5039 19.9323 26.5039 19.3984C26.5039 18.6823 26.3281 18.1615 25.9766 17.8359C25.625 17.5104 25.0391 17.3477 24.2188 17.3477C24.1146 17.3477 23.9909 17.3542 23.8477 17.3672C23.7044 17.3672 23.5417 17.3802 23.3594 17.4062V15.9023C23.5547 15.9154 23.7044 15.9284 23.8086 15.9414C23.9258 15.9414 24.0299 15.9414 24.1211 15.9414C24.7461 15.9414 25.2018 15.7786 25.4883 15.4531C25.7747 15.1276 25.918 14.6654 25.918 14.0664C25.918 13.5195 25.7747 13.0768 25.4883 12.7383C25.2018 12.3997 24.7266 12.2305 24.0625 12.2305H23.7109C23.6979 12.3607 23.6849 12.6341 23.6719 13.0508C23.6719 13.4544 23.6719 13.9427 23.6719 14.5156V19.0078Z"
          fill="white"/>
</svg>