<svg xmlns="http://www.w3.org/2000/svg" width="24" height="24" viewBox="0 0 24 24" fill="none">
    <path d="M21.5306 5.46948L18.5306 2.46948C18.461 2.39974 18.3783 2.34442 18.2872 2.30668C18.1962 2.26894 18.0986 2.24951 18 2.24951C17.9014 2.24951 17.8038 2.26894 17.7128 2.30668C17.6217 2.34442 17.539 2.39974 17.4694 2.46948L8.46937 11.4695C8.39975 11.5392 8.34454 11.6219 8.3069 11.713C8.26926 11.804 8.24992 11.9016 8.25 12.0001V15.0001C8.25 15.199 8.32902 15.3898 8.46967 15.5304C8.61032 15.6711 8.80109 15.7501 9 15.7501H12C12.0985 15.7502 12.1961 15.7308 12.2871 15.6932C12.3782 15.6556 12.4609 15.6004 12.5306 15.5307L21.5306 6.53073C21.6004 6.46107 21.6557 6.37836 21.6934 6.28731C21.7312 6.19626 21.7506 6.09866 21.7506 6.0001C21.7506 5.90154 21.7312 5.80395 21.6934 5.7129C21.6557 5.62185 21.6004 5.53913 21.5306 5.46948ZM11.6897 14.2501H9.75V12.3104L15.75 6.31041L17.6897 8.2501L11.6897 14.2501ZM18.75 7.18979L16.8103 5.2501L18 4.06041L19.9397 6.0001L18.75 7.18979ZM21 11.2501V19.5001C21 19.8979 20.842 20.2795 20.5607 20.5608C20.2794 20.8421 19.8978 21.0001 19.5 21.0001H4.5C4.10218 21.0001 3.72064 20.8421 3.43934 20.5608C3.15804 20.2795 3 19.8979 3 19.5001V4.5001C3 4.10228 3.15804 3.72075 3.43934 3.43944C3.72064 3.15814 4.10218 3.0001 4.5 3.0001H12.75C12.9489 3.0001 13.1397 3.07912 13.2803 3.21977C13.421 3.36042 13.5 3.55119 13.5 3.7501C13.5 3.94901 13.421 4.13978 13.2803 4.28043C13.1397 4.42108 12.9489 4.5001 12.75 4.5001H4.5V19.5001H19.5V11.2501C19.5 11.0512 19.579 10.8604 19.7197 10.7198C19.8603 10.5791 20.0511 10.5001 20.25 10.5001C20.4489 10.5001 20.6397 10.5791 20.7803 10.7198C20.921 10.8604 21 11.0512 21 11.2501Z"
          fill="#4F4F4F"/>
</svg>