<svg xmlns="http://www.w3.org/2000/svg" width="25" height="24" viewBox="0 0 25 24" fill="none">
    <path d="M16.25 14.25C16.25 14.4489 16.171 14.6397 16.0303 14.7803C15.8897 14.921 15.6989 15 15.5 15H9.5C9.30109 15 9.11032 14.921 8.96967 14.7803C8.82902 14.6397 8.75 14.4489 8.75 14.25C8.75 14.0511 8.82902 13.8603 8.96967 13.7197C9.11032 13.579 9.30109 13.5 9.5 13.5H15.5C15.6989 13.5 15.8897 13.579 16.0303 13.7197C16.171 13.8603 16.25 14.0511 16.25 14.25ZM15.5 10.5H9.5C9.30109 10.5 9.11032 10.579 8.96967 10.7197C8.82902 10.8603 8.75 11.0511 8.75 11.25C8.75 11.4489 8.82902 11.6397 8.96967 11.7803C9.11032 11.921 9.30109 12 9.5 12H15.5C15.6989 12 15.8897 11.921 16.0303 11.7803C16.171 11.6397 16.25 11.4489 16.25 11.25C16.25 11.0511 16.171 10.8603 16.0303 10.7197C15.8897 10.579 15.6989 10.5 15.5 10.5ZM20.75 4.49999V20.25C20.75 20.6478 20.592 21.0293 20.3107 21.3106C20.0294 21.592 19.6478 21.75 19.25 21.75H5.75C5.35218 21.75 4.97064 21.592 4.68934 21.3106C4.40804 21.0293 4.25 20.6478 4.25 20.25V4.49999C4.25 4.10216 4.40804 3.72063 4.68934 3.43933C4.97064 3.15802 5.35218 2.99999 5.75 2.99999H9.14937C9.57079 2.52817 10.0871 2.15066 10.6645 1.8922C11.2419 1.63373 11.8674 1.50012 12.5 1.50012C13.1326 1.50012 13.7581 1.63373 14.3355 1.8922C14.9129 2.15066 15.4292 2.52817 15.8506 2.99999H19.25C19.6478 2.99999 20.0294 3.15802 20.3107 3.43933C20.592 3.72063 20.75 4.10216 20.75 4.49999ZM9.5 5.99999H15.5C15.5 5.20434 15.1839 4.44127 14.6213 3.87867C14.0587 3.31606 13.2956 2.99999 12.5 2.99999C11.7044 2.99999 10.9413 3.31606 10.3787 3.87867C9.81607 4.44127 9.5 5.20434 9.5 5.99999ZM19.25 4.49999H16.7422C16.9128 4.98169 17 5.48896 17 5.99999V6.74999C17 6.9489 16.921 7.13966 16.7803 7.28032C16.6397 7.42097 16.4489 7.49999 16.25 7.49999H8.75C8.55109 7.49999 8.36032 7.42097 8.21967 7.28032C8.07902 7.13966 8 6.9489 8 6.74999V5.99999C8.00002 5.48896 8.08721 4.98169 8.25781 4.49999H5.75V20.25H19.25V4.49999Z"
          fill="black"/>
</svg>