<svg xmlns="http://www.w3.org/2000/svg" width="24" height="24" viewBox="0 0 24 24" fill="none">
    <path d="M22.5 12.75V18.75C22.5 19.1478 22.342 19.5293 22.0607 19.8106C21.7794 20.0919 21.3978 20.25 21 20.25H3C2.60218 20.25 2.22064 20.0919 1.93934 19.8106C1.65804 19.5293 1.5 19.1478 1.5 18.75V12.75C1.5 12.3522 1.65804 11.9706 1.93934 11.6893C2.22064 11.408 2.60218 11.25 3 11.25H7.5C7.69891 11.25 7.88968 11.329 8.03033 11.4697C8.17098 11.6103 8.25 11.8011 8.25 12C8.25 12.1989 8.17098 12.3897 8.03033 12.5303C7.88968 12.671 7.69891 12.75 7.5 12.75H3V18.75H21V12.75H16.5C16.3011 12.75 16.1103 12.671 15.9697 12.5303C15.829 12.3897 15.75 12.1989 15.75 12C15.75 11.8011 15.829 11.6103 15.9697 11.4697C16.1103 11.329 16.3011 11.25 16.5 11.25H21C21.3978 11.25 21.7794 11.408 22.0607 11.6893C22.342 11.9706 22.5 12.3522 22.5 12.75ZM8.03063 7.28061L11.25 4.06029V12C11.25 12.1989 11.329 12.3897 11.4697 12.5303C11.6103 12.671 11.8011 12.75 12 12.75C12.1989 12.75 12.3897 12.671 12.5303 12.5303C12.671 12.3897 12.75 12.1989 12.75 12V4.06029L15.9694 7.28061C16.1101 7.42134 16.301 7.5004 16.5 7.5004C16.699 7.5004 16.8899 7.42134 17.0306 7.28061C17.1714 7.13987 17.2504 6.949 17.2504 6.74998C17.2504 6.55096 17.1714 6.36009 17.0306 6.21935L12.5306 1.71935C12.461 1.64962 12.3783 1.5943 12.2872 1.55656C12.1962 1.51882 12.0986 1.49939 12 1.49939C11.9014 1.49939 11.8038 1.51882 11.7128 1.55656C11.6217 1.5943 11.539 1.64962 11.4694 1.71935L6.96937 6.21935C6.82864 6.36009 6.74958 6.55096 6.74958 6.74998C6.74958 6.949 6.82864 7.13987 6.96938 7.2806C7.11011 7.42133 7.30098 7.5004 7.5 7.5004C7.69902 7.5004 7.88989 7.42134 8.03063 7.28061ZM18.75 15.75C18.75 15.5275 18.684 15.31 18.5604 15.125C18.4368 14.94 18.2611 14.7958 18.0555 14.7106C17.85 14.6255 17.6238 14.6032 17.4055 14.6466C17.1873 14.69 16.9868 14.7972 16.8295 14.9545C16.6722 15.1118 16.565 15.3123 16.5216 15.5305C16.4782 15.7487 16.5005 15.9749 16.5856 16.1805C16.6708 16.3861 16.815 16.5618 17 16.6854C17.185 16.809 17.4025 16.875 17.625 16.875C17.9234 16.875 18.2095 16.7565 18.4205 16.5455C18.6315 16.3345 18.75 16.0483 18.75 15.75Z"
          fill="#4F4F4F"/>
</svg>